<mxfile host="app.diagrams.net" agent="Mozilla/5.0 (Windows NT 10.0; Win64; x64) AppleWebKit/537.36 (KHTML, like Gecko) Chrome/137.0.0.0 Safari/537.36" version="27.1.6">
  <diagram name="Page-1" id="waVpbzB-ocktYXOnNX66">
    <mxGraphModel dx="2949" dy="1669" grid="1" gridSize="10" guides="1" tooltips="1" connect="1" arrows="1" fold="1" page="1" pageScale="1" pageWidth="850" pageHeight="1100" background="none" math="0" shadow="0">
      <root>
        <mxCell id="0" />
        <mxCell id="1" parent="0" />
        <mxCell id="IIZblp1b7rIcMVV6Au-m-84" style="edgeStyle=orthogonalEdgeStyle;rounded=0;orthogonalLoop=1;jettySize=auto;html=1;entryX=0;entryY=0.5;entryDx=0;entryDy=0;endArrow=none;startFill=0;fontColor=light-dark(#000000,#FFFFFF);labelBackgroundColor=light-dark(#FFFFFF,#000000);" edge="1" parent="1" source="IIZblp1b7rIcMVV6Au-m-42" target="IIZblp1b7rIcMVV6Au-m-82">
          <mxGeometry relative="1" as="geometry" />
        </mxCell>
        <mxCell id="IIZblp1b7rIcMVV6Au-m-42" value="usuarios" style="swimlane;whiteSpace=wrap;html=1;fontColor=light-dark(#000000,#FFFFFF);labelBackgroundColor=light-dark(#FFFFFF,#000000);" vertex="1" parent="1">
          <mxGeometry x="110" y="450" width="210" height="200" as="geometry" />
        </mxCell>
        <mxCell id="IIZblp1b7rIcMVV6Au-m-38" value="id (PK)" style="text;strokeColor=none;fillColor=none;align=left;verticalAlign=middle;spacingLeft=4;spacingRight=4;overflow=hidden;points=[[0,0.5],[1,0.5]];portConstraint=eastwest;rotatable=0;whiteSpace=wrap;html=1;fontColor=light-dark(#000000,#FFFFFF);labelBackgroundColor=light-dark(#FFFFFF,#000000);" vertex="1" parent="IIZblp1b7rIcMVV6Au-m-42">
          <mxGeometry y="20" width="210" height="30" as="geometry" />
        </mxCell>
        <mxCell id="IIZblp1b7rIcMVV6Au-m-39" value="nome" style="text;strokeColor=none;fillColor=none;align=left;verticalAlign=middle;spacingLeft=4;spacingRight=4;overflow=hidden;points=[[0,0.5],[1,0.5]];portConstraint=eastwest;rotatable=0;whiteSpace=wrap;html=1;fontColor=light-dark(#000000,#FFFFFF);labelBackgroundColor=light-dark(#FFFFFF,#000000);" vertex="1" parent="IIZblp1b7rIcMVV6Au-m-42">
          <mxGeometry y="50" width="210" height="30" as="geometry" />
        </mxCell>
        <mxCell id="IIZblp1b7rIcMVV6Au-m-40" value="email" style="text;strokeColor=none;fillColor=none;align=left;verticalAlign=middle;spacingLeft=4;spacingRight=4;overflow=hidden;points=[[0,0.5],[1,0.5]];portConstraint=eastwest;rotatable=0;whiteSpace=wrap;html=1;fontColor=light-dark(#000000,#FFFFFF);labelBackgroundColor=light-dark(#FFFFFF,#000000);" vertex="1" parent="IIZblp1b7rIcMVV6Au-m-42">
          <mxGeometry y="80" width="210" height="30" as="geometry" />
        </mxCell>
        <mxCell id="IIZblp1b7rIcMVV6Au-m-44" value="senha" style="text;strokeColor=none;fillColor=none;align=left;verticalAlign=middle;spacingLeft=4;spacingRight=4;overflow=hidden;points=[[0,0.5],[1,0.5]];portConstraint=eastwest;rotatable=0;whiteSpace=wrap;html=1;fontColor=light-dark(#000000,#FFFFFF);labelBackgroundColor=light-dark(#FFFFFF,#000000);" vertex="1" parent="IIZblp1b7rIcMVV6Au-m-42">
          <mxGeometry y="110" width="210" height="30" as="geometry" />
        </mxCell>
        <mxCell id="IIZblp1b7rIcMVV6Au-m-45" value="created_at" style="text;strokeColor=none;fillColor=none;align=left;verticalAlign=middle;spacingLeft=4;spacingRight=4;overflow=hidden;points=[[0,0.5],[1,0.5]];portConstraint=eastwest;rotatable=0;whiteSpace=wrap;html=1;fontColor=light-dark(#000000,#FFFFFF);labelBackgroundColor=light-dark(#FFFFFF,#000000);" vertex="1" parent="IIZblp1b7rIcMVV6Au-m-42">
          <mxGeometry y="140" width="210" height="30" as="geometry" />
        </mxCell>
        <mxCell id="IIZblp1b7rIcMVV6Au-m-46" value="updated_at" style="text;strokeColor=none;fillColor=none;align=left;verticalAlign=middle;spacingLeft=4;spacingRight=4;overflow=hidden;points=[[0,0.5],[1,0.5]];portConstraint=eastwest;rotatable=0;whiteSpace=wrap;html=1;fontColor=light-dark(#000000,#FFFFFF);labelBackgroundColor=light-dark(#FFFFFF,#000000);" vertex="1" parent="IIZblp1b7rIcMVV6Au-m-42">
          <mxGeometry y="170" width="210" height="30" as="geometry" />
        </mxCell>
        <mxCell id="IIZblp1b7rIcMVV6Au-m-89" style="edgeStyle=orthogonalEdgeStyle;rounded=0;orthogonalLoop=1;jettySize=auto;html=1;entryX=0;entryY=0.5;entryDx=0;entryDy=0;endArrow=none;startFill=0;fontColor=light-dark(#000000,#FFFFFF);labelBackgroundColor=light-dark(#FFFFFF,#000000);" edge="1" parent="1" source="IIZblp1b7rIcMVV6Au-m-47" target="IIZblp1b7rIcMVV6Au-m-88">
          <mxGeometry relative="1" as="geometry" />
        </mxCell>
        <mxCell id="IIZblp1b7rIcMVV6Au-m-110" style="edgeStyle=orthogonalEdgeStyle;rounded=0;orthogonalLoop=1;jettySize=auto;html=1;endArrow=none;startFill=0;fontColor=light-dark(#000000,#FFFFFF);labelBackgroundColor=light-dark(#FFFFFF,#000000);" edge="1" parent="1" source="IIZblp1b7rIcMVV6Au-m-47" target="IIZblp1b7rIcMVV6Au-m-103">
          <mxGeometry relative="1" as="geometry">
            <Array as="points">
              <mxPoint x="525" y="360" />
              <mxPoint x="525" y="360" />
            </Array>
          </mxGeometry>
        </mxCell>
        <mxCell id="IIZblp1b7rIcMVV6Au-m-47" value="jogador" style="swimlane;whiteSpace=wrap;html=1;fontColor=light-dark(#000000,#FFFFFF);labelBackgroundColor=light-dark(#FFFFFF,#000000);" vertex="1" parent="1">
          <mxGeometry x="510" y="450" width="210" height="200" as="geometry" />
        </mxCell>
        <mxCell id="IIZblp1b7rIcMVV6Au-m-48" value="id (PK, FK â†’&amp;nbsp; usuarios.id)" style="text;strokeColor=none;fillColor=none;align=left;verticalAlign=middle;spacingLeft=4;spacingRight=4;overflow=hidden;points=[[0,0.5],[1,0.5]];portConstraint=eastwest;rotatable=0;whiteSpace=wrap;html=1;fontColor=light-dark(#000000,#FFFFFF);labelBackgroundColor=light-dark(#FFFFFF,#000000);" vertex="1" parent="IIZblp1b7rIcMVV6Au-m-47">
          <mxGeometry y="20" width="210" height="30" as="geometry" />
        </mxCell>
        <mxCell id="IIZblp1b7rIcMVV6Au-m-49" value="nome_personagem" style="text;strokeColor=none;fillColor=none;align=left;verticalAlign=middle;spacingLeft=4;spacingRight=4;overflow=hidden;points=[[0,0.5],[1,0.5]];portConstraint=eastwest;rotatable=0;whiteSpace=wrap;html=1;fontColor=light-dark(#000000,#FFFFFF);labelBackgroundColor=light-dark(#FFFFFF,#000000);" vertex="1" parent="IIZblp1b7rIcMVV6Au-m-47">
          <mxGeometry y="50" width="210" height="30" as="geometry" />
        </mxCell>
        <mxCell id="IIZblp1b7rIcMVV6Au-m-50" value="posicao_x" style="text;strokeColor=none;fillColor=none;align=left;verticalAlign=middle;spacingLeft=4;spacingRight=4;overflow=hidden;points=[[0,0.5],[1,0.5]];portConstraint=eastwest;rotatable=0;whiteSpace=wrap;html=1;fontColor=light-dark(#000000,#FFFFFF);labelBackgroundColor=light-dark(#FFFFFF,#000000);" vertex="1" parent="IIZblp1b7rIcMVV6Au-m-47">
          <mxGeometry y="80" width="210" height="30" as="geometry" />
        </mxCell>
        <mxCell id="IIZblp1b7rIcMVV6Au-m-51" value="posicao_y" style="text;strokeColor=none;fillColor=none;align=left;verticalAlign=middle;spacingLeft=4;spacingRight=4;overflow=hidden;points=[[0,0.5],[1,0.5]];portConstraint=eastwest;rotatable=0;whiteSpace=wrap;html=1;fontColor=light-dark(#000000,#FFFFFF);labelBackgroundColor=light-dark(#FFFFFF,#000000);" vertex="1" parent="IIZblp1b7rIcMVV6Au-m-47">
          <mxGeometry y="110" width="210" height="30" as="geometry" />
        </mxCell>
        <mxCell id="IIZblp1b7rIcMVV6Au-m-52" value="vida" style="text;strokeColor=none;fillColor=none;align=left;verticalAlign=middle;spacingLeft=4;spacingRight=4;overflow=hidden;points=[[0,0.5],[1,0.5]];portConstraint=eastwest;rotatable=0;whiteSpace=wrap;html=1;fontColor=light-dark(#000000,#FFFFFF);labelBackgroundColor=light-dark(#FFFFFF,#000000);" vertex="1" parent="IIZblp1b7rIcMVV6Au-m-47">
          <mxGeometry y="140" width="210" height="30" as="geometry" />
        </mxCell>
        <mxCell id="IIZblp1b7rIcMVV6Au-m-53" value="data_salvo" style="text;strokeColor=none;fillColor=none;align=left;verticalAlign=middle;spacingLeft=4;spacingRight=4;overflow=hidden;points=[[0,0.5],[1,0.5]];portConstraint=eastwest;rotatable=0;whiteSpace=wrap;html=1;fontColor=light-dark(#000000,#FFFFFF);labelBackgroundColor=light-dark(#FFFFFF,#000000);" vertex="1" parent="IIZblp1b7rIcMVV6Au-m-47">
          <mxGeometry y="170" width="210" height="30" as="geometry" />
        </mxCell>
        <mxCell id="IIZblp1b7rIcMVV6Au-m-94" style="edgeStyle=orthogonalEdgeStyle;rounded=0;orthogonalLoop=1;jettySize=auto;html=1;entryX=0.5;entryY=1;entryDx=0;entryDy=0;endArrow=none;startFill=0;fontColor=light-dark(#000000,#FFFFFF);labelBackgroundColor=light-dark(#FFFFFF,#000000);" edge="1" parent="1" source="IIZblp1b7rIcMVV6Au-m-54" target="IIZblp1b7rIcMVV6Au-m-93">
          <mxGeometry relative="1" as="geometry" />
        </mxCell>
        <mxCell id="IIZblp1b7rIcMVV6Au-m-54" value="inventario" style="swimlane;whiteSpace=wrap;html=1;align=center;fontColor=light-dark(#000000,#FFFFFF);labelBackgroundColor=light-dark(#FFFFFF,#000000);" vertex="1" parent="1">
          <mxGeometry x="910" y="480" width="210" height="140" as="geometry" />
        </mxCell>
        <mxCell id="IIZblp1b7rIcMVV6Au-m-55" value="id (PK)" style="text;strokeColor=none;fillColor=none;align=left;verticalAlign=middle;spacingLeft=4;spacingRight=4;overflow=hidden;points=[[0,0.5],[1,0.5]];portConstraint=eastwest;rotatable=0;whiteSpace=wrap;html=1;fontColor=light-dark(#000000,#FFFFFF);labelBackgroundColor=light-dark(#FFFFFF,#000000);" vertex="1" parent="IIZblp1b7rIcMVV6Au-m-54">
          <mxGeometry y="20" width="210" height="30" as="geometry" />
        </mxCell>
        <mxCell id="IIZblp1b7rIcMVV6Au-m-56" value="jogador_id (FK&amp;nbsp;&lt;span style=&quot;font-family: monospace; font-size: 0px; text-wrap-mode: nowrap;&quot;&gt;&lt;span style=&quot;font-family: Helvetica; font-size: 12px; text-wrap-mode: wrap;&quot;&gt;&lt;font style=&quot;&quot;&gt;â†’ jogador.id&lt;/font&gt;&lt;/span&gt;&lt;font style=&quot;&quot;&gt;%3CmxGraphModel%3E%3Croot%3E%3CmxCell%20id%3D%220%22%2F%3E%3CmxCell%20id%3D%221%22%20parent%3D%220%22%2F%3E%3CmxCell%20id%3D%222%22%20value%3D%22usuarios%22%20style%3D%22swimlane%3BwhiteSpace%3Dwrap%3Bhtml%3D1%3B%22%20vertex%3D%221%22%20parent%3D%221%22%3E%3CmxGeometry%20x%3D%22100%22%20y%3D%22450%22%20width%3D%22210%22%20height%3D%22200%22%20as%3D%22geometry%22%2F%3E%3C%2FmxCell%3E%3CmxCell%20id%3D%223%22%20value%3D%22id%20(PK)%22%20style%3D%22text%3BstrokeColor%3Dnone%3BfillColor%3Dnone%3Balign%3Dleft%3BverticalAlign%3Dmiddle%3BspacingLeft%3D4%3BspacingRight%3D4%3Boverflow%3Dhidden%3Bpoints%3D%5B%5B0%2C0.5%5D%2C%5B1%2C0.5%5D%5D%3BportConstraint%3Deastwest%3Brotatable%3D0%3BwhiteSpace%3Dwrap%3Bhtml%3D1%3B%22%20vertex%3D%221%22%20parent%3D%222%22%3E%3CmxGeometry%20y%3D%2220%22%20width%3D%22210%22%20height%3D%2230%22%20as%3D%22geometry%22%2F%3E%3C%2FmxCell%3E%3CmxCell%20id%3D%224%22%20value%3D%22nome%22%20style%3D%22text%3BstrokeColor%3Dnone%3BfillColor%3Dnone%3Balign%3Dleft%3BverticalAlign%3Dmiddle%3BspacingLeft%3D4%3BspacingRight%3D4%3Boverflow%3Dhidden%3Bpoints%3D%5B%5B0%2C0.5%5D%2C%5B1%2C0.5%5D%5D%3BportConstraint%3Deastwest%3Brotatable%3D0%3BwhiteSpace%3Dwrap%3Bhtml%3D1%3B%22%20vertex%3D%221%22%20parent%3D%222%22%3E%3CmxGeometry%20y%3D%2250%22%20width%3D%22210%22%20height%3D%2230%22%20as%3D%22geometry%22%2F%3E%3C%2FmxCell%3E%3CmxCell%20id%3D%225%22%20value%3D%22email%22%20style%3D%22text%3BstrokeColor%3Dnone%3BfillColor%3Dnone%3Balign%3Dleft%3BverticalAlign%3Dmiddle%3BspacingLeft%3D4%3BspacingRight%3D4%3Boverflow%3Dhidden%3Bpoints%3D%5B%5B0%2C0.5%5D%2C%5B1%2C0.5%5D%5D%3BportConstraint%3Deastwest%3Brotatable%3D0%3BwhiteSpace%3Dwrap%3Bhtml%3D1%3B%22%20vertex%3D%221%22%20parent%3D%222%22%3E%3CmxGeometry%20y%3D%2280%22%20width%3D%22210%22%20height%3D%2230%22%20as%3D%22geometry%22%2F%3E%3C%2FmxCell%3E%3CmxCell%20id%3D%226%22%20value%3D%22senha%22%20style%3D%22text%3BstrokeColor%3Dnone%3BfillColor%3Dnone%3Balign%3Dleft%3BverticalAlign%3Dmiddle%3BspacingLeft%3D4%3BspacingRight%3D4%3Boverflow%3Dhidden%3Bpoints%3D%5B%5B0%2C0.5%5D%2C%5B1%2C0.5%5D%5D%3BportConstraint%3Deastwest%3Brotatable%3D0%3BwhiteSpace%3Dwrap%3Bhtml%3D1%3B%22%20vertex%3D%221%22%20parent%3D%222%22%3E%3CmxGeometry%20y%3D%22110%22%20width%3D%22210%22%20height%3D%2230%22%20as%3D%22geometry%22%2F%3E%3C%2FmxCell%3E%3CmxCell%20id%3D%227%22%20value%3D%22created_at%22%20style%3D%22text%3BstrokeColor%3Dnone%3BfillColor%3Dnone%3Balign%3Dleft%3BverticalAlign%3Dmiddle%3BspacingLeft%3D4%3BspacingRight%3D4%3Boverflow%3Dhidden%3Bpoints%3D%5B%5B0%2C0.5%5D%2C%5B1%2C0.5%5D%5D%3BportConstraint%3Deastwest%3Brotatable%3D0%3BwhiteSpace%3Dwrap%3Bhtml%3D1%3B%22%20vertex%3D%221%22%20parent%3D%222%22%3E%3CmxGeometry%20y%3D%22140%22%20width%3D%22210%22%20height%3D%2230%22%20as%3D%22geometry%22%2F%3E%3C%2FmxCell%3E%3CmxCell%20id%3D%228%22%20value%3D%22updated_at%22%20style%3D%22text%3BstrokeColor%3Dnone%3BfillColor%3Dnone%3Balign%3Dleft%3BverticalAlign%3Dmiddle%3BspacingLeft%3D4%3BspacingRight%3D4%3Boverflow%3Dhidden%3Bpoints%3D%5B%5B0%2C0.5%5D%2C%5B1%2C0.5%5D%5D%3BportConstraint%3Deastwest%3Brotatable%3D0%3BwhiteSpace%3Dwrap%3Bhtml%3D1%3B%22%20vertex%3D%221%22%20parent%3D%222%22%3E%3CmxGeometry%20y%3D%22170%22%20width%3D%22210%22%20height%3D%2230%22%20as%3D%22geometry%22%2F%3E%3C%2FmxCell%3E%3C%2Froot%3E%3C%2FmxGraphModel%3E&lt;/font&gt;&lt;/span&gt;)" style="text;strokeColor=none;fillColor=none;align=left;verticalAlign=middle;spacingLeft=4;spacingRight=4;overflow=hidden;points=[[0,0.5],[1,0.5]];portConstraint=eastwest;rotatable=0;whiteSpace=wrap;html=1;fontColor=light-dark(#000000,#FFFFFF);labelBackgroundColor=light-dark(#FFFFFF,#000000);" vertex="1" parent="IIZblp1b7rIcMVV6Au-m-54">
          <mxGeometry y="50" width="210" height="30" as="geometry" />
        </mxCell>
        <mxCell id="IIZblp1b7rIcMVV6Au-m-57" value="item_id (FK â†’ item.id)" style="text;strokeColor=none;fillColor=none;align=left;verticalAlign=middle;spacingLeft=4;spacingRight=4;overflow=hidden;points=[[0,0.5],[1,0.5]];portConstraint=eastwest;rotatable=0;whiteSpace=wrap;html=1;fontColor=light-dark(#000000,#FFFFFF);labelBackgroundColor=light-dark(#FFFFFF,#000000);" vertex="1" parent="IIZblp1b7rIcMVV6Au-m-54">
          <mxGeometry y="80" width="210" height="30" as="geometry" />
        </mxCell>
        <mxCell id="IIZblp1b7rIcMVV6Au-m-58" value="quantidade" style="text;strokeColor=none;fillColor=none;align=left;verticalAlign=middle;spacingLeft=4;spacingRight=4;overflow=hidden;points=[[0,0.5],[1,0.5]];portConstraint=eastwest;rotatable=0;whiteSpace=wrap;html=1;fontColor=light-dark(#000000,#FFFFFF);labelBackgroundColor=light-dark(#FFFFFF,#000000);" vertex="1" parent="IIZblp1b7rIcMVV6Au-m-54">
          <mxGeometry y="110" width="210" height="30" as="geometry" />
        </mxCell>
        <mxCell id="IIZblp1b7rIcMVV6Au-m-61" value="item" style="swimlane;whiteSpace=wrap;html=1;align=center;fontColor=light-dark(#000000,#FFFFFF);labelBackgroundColor=light-dark(#FFFFFF,#000000);" vertex="1" parent="1">
          <mxGeometry x="910" y="200" width="210" height="140" as="geometry" />
        </mxCell>
        <mxCell id="IIZblp1b7rIcMVV6Au-m-62" value="id (PK)" style="text;strokeColor=none;fillColor=none;align=left;verticalAlign=middle;spacingLeft=4;spacingRight=4;overflow=hidden;points=[[0,0.5],[1,0.5]];portConstraint=eastwest;rotatable=0;whiteSpace=wrap;html=1;fontColor=light-dark(#000000,#FFFFFF);labelBackgroundColor=light-dark(#FFFFFF,#000000);" vertex="1" parent="IIZblp1b7rIcMVV6Au-m-61">
          <mxGeometry y="20" width="210" height="30" as="geometry" />
        </mxCell>
        <mxCell id="IIZblp1b7rIcMVV6Au-m-63" value="nome" style="text;strokeColor=none;fillColor=none;align=left;verticalAlign=middle;spacingLeft=4;spacingRight=4;overflow=hidden;points=[[0,0.5],[1,0.5]];portConstraint=eastwest;rotatable=0;whiteSpace=wrap;html=1;fontColor=light-dark(#000000,#FFFFFF);labelBackgroundColor=light-dark(#FFFFFF,#000000);" vertex="1" parent="IIZblp1b7rIcMVV6Au-m-61">
          <mxGeometry y="50" width="210" height="30" as="geometry" />
        </mxCell>
        <mxCell id="IIZblp1b7rIcMVV6Au-m-64" value="tipo" style="text;strokeColor=none;fillColor=none;align=left;verticalAlign=middle;spacingLeft=4;spacingRight=4;overflow=hidden;points=[[0,0.5],[1,0.5]];portConstraint=eastwest;rotatable=0;whiteSpace=wrap;html=1;fontColor=light-dark(#000000,#FFFFFF);labelBackgroundColor=light-dark(#FFFFFF,#000000);" vertex="1" parent="IIZblp1b7rIcMVV6Au-m-61">
          <mxGeometry y="80" width="210" height="30" as="geometry" />
        </mxCell>
        <mxCell id="IIZblp1b7rIcMVV6Au-m-65" value="descricao" style="text;strokeColor=none;fillColor=none;align=left;verticalAlign=middle;spacingLeft=4;spacingRight=4;overflow=hidden;points=[[0,0.5],[1,0.5]];portConstraint=eastwest;rotatable=0;whiteSpace=wrap;html=1;fontColor=light-dark(#000000,#FFFFFF);labelBackgroundColor=light-dark(#FFFFFF,#000000);" vertex="1" parent="IIZblp1b7rIcMVV6Au-m-61">
          <mxGeometry y="110" width="210" height="30" as="geometry" />
        </mxCell>
        <mxCell id="IIZblp1b7rIcMVV6Au-m-66" value="mapa_estado" style="swimlane;whiteSpace=wrap;html=1;fontColor=light-dark(#000000,#FFFFFF);labelBackgroundColor=light-dark(#FFFFFF,#000000);" vertex="1" parent="1">
          <mxGeometry x="510" y="790" width="210" height="230" as="geometry" />
        </mxCell>
        <mxCell id="IIZblp1b7rIcMVV6Au-m-67" value="id (PK)" style="text;strokeColor=none;fillColor=none;align=left;verticalAlign=middle;spacingLeft=4;spacingRight=4;overflow=hidden;points=[[0,0.5],[1,0.5]];portConstraint=eastwest;rotatable=0;whiteSpace=wrap;html=1;fontColor=light-dark(#000000,#FFFFFF);labelBackgroundColor=light-dark(#FFFFFF,#000000);" vertex="1" parent="IIZblp1b7rIcMVV6Au-m-66">
          <mxGeometry y="20" width="210" height="30" as="geometry" />
        </mxCell>
        <mxCell id="IIZblp1b7rIcMVV6Au-m-69" value="mapa_nome" style="text;strokeColor=none;fillColor=none;align=left;verticalAlign=middle;spacingLeft=4;spacingRight=4;overflow=hidden;points=[[0,0.5],[1,0.5]];portConstraint=eastwest;rotatable=0;whiteSpace=wrap;html=1;fontColor=light-dark(#000000,#FFFFFF);labelBackgroundColor=light-dark(#FFFFFF,#000000);" vertex="1" parent="IIZblp1b7rIcMVV6Au-m-66">
          <mxGeometry y="80" width="210" height="30" as="geometry" />
        </mxCell>
        <mxCell id="IIZblp1b7rIcMVV6Au-m-70" value="porta_id" style="text;strokeColor=none;fillColor=none;align=left;verticalAlign=middle;spacingLeft=4;spacingRight=4;overflow=hidden;points=[[0,0.5],[1,0.5]];portConstraint=eastwest;rotatable=0;whiteSpace=wrap;html=1;fontColor=light-dark(#000000,#FFFFFF);labelBackgroundColor=light-dark(#FFFFFF,#000000);" vertex="1" parent="IIZblp1b7rIcMVV6Au-m-66">
          <mxGeometry y="110" width="210" height="30" as="geometry" />
        </mxCell>
        <mxCell id="IIZblp1b7rIcMVV6Au-m-71" value="porta_aberta" style="text;strokeColor=none;fillColor=none;align=left;verticalAlign=middle;spacingLeft=4;spacingRight=4;overflow=hidden;points=[[0,0.5],[1,0.5]];portConstraint=eastwest;rotatable=0;whiteSpace=wrap;html=1;fontColor=light-dark(#000000,#FFFFFF);labelBackgroundColor=light-dark(#FFFFFF,#000000);" vertex="1" parent="IIZblp1b7rIcMVV6Au-m-66">
          <mxGeometry y="140" width="210" height="30" as="geometry" />
        </mxCell>
        <mxCell id="IIZblp1b7rIcMVV6Au-m-73" value="jogador_id (FK&amp;nbsp;&lt;span style=&quot;font-family: monospace; font-size: 0px; text-wrap-mode: nowrap;&quot;&gt;&lt;span style=&quot;font-family: Helvetica; font-size: 12px; text-wrap-mode: wrap;&quot;&gt;&lt;font style=&quot;&quot;&gt;â†’ jogador.id&lt;/font&gt;&lt;/span&gt;&lt;font style=&quot;&quot;&gt;%3CmxGraphModel%3E%3Croot%3E%3CmxCell%20id%3D%220%22%2F%3E%3CmxCell%20id%3D%221%22%20parent%3D%220%22%2F%3E%3CmxCell%20id%3D%222%22%20value%3D%22usuarios%22%20style%3D%22swimlane%3BwhiteSpace%3Dwrap%3Bhtml%3D1%3B%22%20vertex%3D%221%22%20parent%3D%221%22%3E%3CmxGeometry%20x%3D%22100%22%20y%3D%22450%22%20width%3D%22210%22%20height%3D%22200%22%20as%3D%22geometry%22%2F%3E%3C%2FmxCell%3E%3CmxCell%20id%3D%223%22%20value%3D%22id%20(PK)%22%20style%3D%22text%3BstrokeColor%3Dnone%3BfillColor%3Dnone%3Balign%3Dleft%3BverticalAlign%3Dmiddle%3BspacingLeft%3D4%3BspacingRight%3D4%3Boverflow%3Dhidden%3Bpoints%3D%5B%5B0%2C0.5%5D%2C%5B1%2C0.5%5D%5D%3BportConstraint%3Deastwest%3Brotatable%3D0%3BwhiteSpace%3Dwrap%3Bhtml%3D1%3B%22%20vertex%3D%221%22%20parent%3D%222%22%3E%3CmxGeometry%20y%3D%2220%22%20width%3D%22210%22%20height%3D%2230%22%20as%3D%22geometry%22%2F%3E%3C%2FmxCell%3E%3CmxCell%20id%3D%224%22%20value%3D%22nome%22%20style%3D%22text%3BstrokeColor%3Dnone%3BfillColor%3Dnone%3Balign%3Dleft%3BverticalAlign%3Dmiddle%3BspacingLeft%3D4%3BspacingRight%3D4%3Boverflow%3Dhidden%3Bpoints%3D%5B%5B0%2C0.5%5D%2C%5B1%2C0.5%5D%5D%3BportConstraint%3Deastwest%3Brotatable%3D0%3BwhiteSpace%3Dwrap%3Bhtml%3D1%3B%22%20vertex%3D%221%22%20parent%3D%222%22%3E%3CmxGeometry%20y%3D%2250%22%20width%3D%22210%22%20height%3D%2230%22%20as%3D%22geometry%22%2F%3E%3C%2FmxCell%3E%3CmxCell%20id%3D%225%22%20value%3D%22email%22%20style%3D%22text%3BstrokeColor%3Dnone%3BfillColor%3Dnone%3Balign%3Dleft%3BverticalAlign%3Dmiddle%3BspacingLeft%3D4%3BspacingRight%3D4%3Boverflow%3Dhidden%3Bpoints%3D%5B%5B0%2C0.5%5D%2C%5B1%2C0.5%5D%5D%3BportConstraint%3Deastwest%3Brotatable%3D0%3BwhiteSpace%3Dwrap%3Bhtml%3D1%3B%22%20vertex%3D%221%22%20parent%3D%222%22%3E%3CmxGeometry%20y%3D%2280%22%20width%3D%22210%22%20height%3D%2230%22%20as%3D%22geometry%22%2F%3E%3C%2FmxCell%3E%3CmxCell%20id%3D%226%22%20value%3D%22senha%22%20style%3D%22text%3BstrokeColor%3Dnone%3BfillColor%3Dnone%3Balign%3Dleft%3BverticalAlign%3Dmiddle%3BspacingLeft%3D4%3BspacingRight%3D4%3Boverflow%3Dhidden%3Bpoints%3D%5B%5B0%2C0.5%5D%2C%5B1%2C0.5%5D%5D%3BportConstraint%3Deastwest%3Brotatable%3D0%3BwhiteSpace%3Dwrap%3Bhtml%3D1%3B%22%20vertex%3D%221%22%20parent%3D%222%22%3E%3CmxGeometry%20y%3D%22110%22%20width%3D%22210%22%20height%3D%2230%22%20as%3D%22geometry%22%2F%3E%3C%2FmxCell%3E%3CmxCell%20id%3D%227%22%20value%3D%22created_at%22%20style%3D%22text%3BstrokeColor%3Dnone%3BfillColor%3Dnone%3Balign%3Dleft%3BverticalAlign%3Dmiddle%3BspacingLeft%3D4%3BspacingRight%3D4%3Boverflow%3Dhidden%3Bpoints%3D%5B%5B0%2C0.5%5D%2C%5B1%2C0.5%5D%5D%3BportConstraint%3Deastwest%3Brotatable%3D0%3BwhiteSpace%3Dwrap%3Bhtml%3D1%3B%22%20vertex%3D%221%22%20parent%3D%222%22%3E%3CmxGeometry%20y%3D%22140%22%20width%3D%22210%22%20height%3D%2230%22%20as%3D%22geometry%22%2F%3E%3C%2FmxCell%3E%3CmxCell%20id%3D%228%22%20value%3D%22updated_at%22%20style%3D%22text%3BstrokeColor%3Dnone%3BfillColor%3Dnone%3Balign%3Dleft%3BverticalAlign%3Dmiddle%3BspacingLeft%3D4%3BspacingRight%3D4%3Boverflow%3Dhidden%3Bpoints%3D%5B%5B0%2C0.5%5D%2C%5B1%2C0.5%5D%5D%3BportConstraint%3Deastwest%3Brotatable%3D0%3BwhiteSpace%3Dwrap%3Bhtml%3D1%3B%22%20vertex%3D%221%22%20parent%3D%222%22%3E%3CmxGeometry%20y%3D%22170%22%20width%3D%22210%22%20height%3D%2230%22%20as%3D%22geometry%22%2F%3E%3C%2FmxCell%3E%3C%2Froot%3E%3C%2FmxGraphModel%3E&lt;/font&gt;&lt;/span&gt;)" style="text;strokeColor=none;fillColor=none;align=left;verticalAlign=middle;spacingLeft=4;spacingRight=4;overflow=hidden;points=[[0,0.5],[1,0.5]];portConstraint=eastwest;rotatable=0;whiteSpace=wrap;html=1;fontColor=light-dark(#000000,#FFFFFF);labelBackgroundColor=light-dark(#FFFFFF,#000000);" vertex="1" parent="IIZblp1b7rIcMVV6Au-m-66">
          <mxGeometry y="50" width="210" height="30" as="geometry" />
        </mxCell>
        <mxCell id="IIZblp1b7rIcMVV6Au-m-74" value="item_id (FK â†’ item.id)" style="text;strokeColor=none;fillColor=none;align=left;verticalAlign=middle;spacingLeft=4;spacingRight=4;overflow=hidden;points=[[0,0.5],[1,0.5]];portConstraint=eastwest;rotatable=0;whiteSpace=wrap;html=1;fontColor=light-dark(#000000,#FFFFFF);labelBackgroundColor=light-dark(#FFFFFF,#000000);" vertex="1" parent="IIZblp1b7rIcMVV6Au-m-66">
          <mxGeometry y="170" width="210" height="30" as="geometry" />
        </mxCell>
        <mxCell id="IIZblp1b7rIcMVV6Au-m-75" value="item_coletado" style="text;strokeColor=none;fillColor=none;align=left;verticalAlign=middle;spacingLeft=4;spacingRight=4;overflow=hidden;points=[[0,0.5],[1,0.5]];portConstraint=eastwest;rotatable=0;whiteSpace=wrap;html=1;fontColor=light-dark(#000000,#FFFFFF);labelBackgroundColor=light-dark(#FFFFFF,#000000);" vertex="1" parent="IIZblp1b7rIcMVV6Au-m-66">
          <mxGeometry y="200" width="210" height="30" as="geometry" />
        </mxCell>
        <mxCell id="IIZblp1b7rIcMVV6Au-m-76" value="sistema_tempo" style="swimlane;whiteSpace=wrap;html=1;align=center;fontColor=light-dark(#000000,#FFFFFF);labelBackgroundColor=light-dark(#FFFFFF,#000000);" vertex="1" parent="1">
          <mxGeometry x="110" y="200" width="210" height="140" as="geometry" />
        </mxCell>
        <mxCell id="IIZblp1b7rIcMVV6Au-m-77" value="id (PK)" style="text;strokeColor=none;fillColor=none;align=left;verticalAlign=middle;spacingLeft=4;spacingRight=4;overflow=hidden;points=[[0,0.5],[1,0.5]];portConstraint=eastwest;rotatable=0;whiteSpace=wrap;html=1;fontColor=light-dark(#000000,#FFFFFF);labelBackgroundColor=light-dark(#FFFFFF,#000000);" vertex="1" parent="IIZblp1b7rIcMVV6Au-m-76">
          <mxGeometry y="20" width="210" height="30" as="geometry" />
        </mxCell>
        <mxCell id="IIZblp1b7rIcMVV6Au-m-78" value="jogador_id (FK&amp;nbsp;&lt;span style=&quot;font-family: monospace; font-size: 0px; text-wrap-mode: nowrap;&quot;&gt;&lt;span style=&quot;font-family: Helvetica; font-size: 12px; text-wrap-mode: wrap;&quot;&gt;&lt;font style=&quot;&quot;&gt;â†’ jogador.id&lt;/font&gt;&lt;/span&gt;&lt;font style=&quot;&quot;&gt;%3CmxGraphModel%3E%3Croot%3E%3CmxCell%20id%3D%220%22%2F%3E%3CmxCell%20id%3D%221%22%20parent%3D%220%22%2F%3E%3CmxCell%20id%3D%222%22%20value%3D%22usuarios%22%20style%3D%22swimlane%3BwhiteSpace%3Dwrap%3Bhtml%3D1%3B%22%20vertex%3D%221%22%20parent%3D%221%22%3E%3CmxGeometry%20x%3D%22100%22%20y%3D%22450%22%20width%3D%22210%22%20height%3D%22200%22%20as%3D%22geometry%22%2F%3E%3C%2FmxCell%3E%3CmxCell%20id%3D%223%22%20value%3D%22id%20(PK)%22%20style%3D%22text%3BstrokeColor%3Dnone%3BfillColor%3Dnone%3Balign%3Dleft%3BverticalAlign%3Dmiddle%3BspacingLeft%3D4%3BspacingRight%3D4%3Boverflow%3Dhidden%3Bpoints%3D%5B%5B0%2C0.5%5D%2C%5B1%2C0.5%5D%5D%3BportConstraint%3Deastwest%3Brotatable%3D0%3BwhiteSpace%3Dwrap%3Bhtml%3D1%3B%22%20vertex%3D%221%22%20parent%3D%222%22%3E%3CmxGeometry%20y%3D%2220%22%20width%3D%22210%22%20height%3D%2230%22%20as%3D%22geometry%22%2F%3E%3C%2FmxCell%3E%3CmxCell%20id%3D%224%22%20value%3D%22nome%22%20style%3D%22text%3BstrokeColor%3Dnone%3BfillColor%3Dnone%3Balign%3Dleft%3BverticalAlign%3Dmiddle%3BspacingLeft%3D4%3BspacingRight%3D4%3Boverflow%3Dhidden%3Bpoints%3D%5B%5B0%2C0.5%5D%2C%5B1%2C0.5%5D%5D%3BportConstraint%3Deastwest%3Brotatable%3D0%3BwhiteSpace%3Dwrap%3Bhtml%3D1%3B%22%20vertex%3D%221%22%20parent%3D%222%22%3E%3CmxGeometry%20y%3D%2250%22%20width%3D%22210%22%20height%3D%2230%22%20as%3D%22geometry%22%2F%3E%3C%2FmxCell%3E%3CmxCell%20id%3D%225%22%20value%3D%22email%22%20style%3D%22text%3BstrokeColor%3Dnone%3BfillColor%3Dnone%3Balign%3Dleft%3BverticalAlign%3Dmiddle%3BspacingLeft%3D4%3BspacingRight%3D4%3Boverflow%3Dhidden%3Bpoints%3D%5B%5B0%2C0.5%5D%2C%5B1%2C0.5%5D%5D%3BportConstraint%3Deastwest%3Brotatable%3D0%3BwhiteSpace%3Dwrap%3Bhtml%3D1%3B%22%20vertex%3D%221%22%20parent%3D%222%22%3E%3CmxGeometry%20y%3D%2280%22%20width%3D%22210%22%20height%3D%2230%22%20as%3D%22geometry%22%2F%3E%3C%2FmxCell%3E%3CmxCell%20id%3D%226%22%20value%3D%22senha%22%20style%3D%22text%3BstrokeColor%3Dnone%3BfillColor%3Dnone%3Balign%3Dleft%3BverticalAlign%3Dmiddle%3BspacingLeft%3D4%3BspacingRight%3D4%3Boverflow%3Dhidden%3Bpoints%3D%5B%5B0%2C0.5%5D%2C%5B1%2C0.5%5D%5D%3BportConstraint%3Deastwest%3Brotatable%3D0%3BwhiteSpace%3Dwrap%3Bhtml%3D1%3B%22%20vertex%3D%221%22%20parent%3D%222%22%3E%3CmxGeometry%20y%3D%22110%22%20width%3D%22210%22%20height%3D%2230%22%20as%3D%22geometry%22%2F%3E%3C%2FmxCell%3E%3CmxCell%20id%3D%227%22%20value%3D%22created_at%22%20style%3D%22text%3BstrokeColor%3Dnone%3BfillColor%3Dnone%3Balign%3Dleft%3BverticalAlign%3Dmiddle%3BspacingLeft%3D4%3BspacingRight%3D4%3Boverflow%3Dhidden%3Bpoints%3D%5B%5B0%2C0.5%5D%2C%5B1%2C0.5%5D%5D%3BportConstraint%3Deastwest%3Brotatable%3D0%3BwhiteSpace%3Dwrap%3Bhtml%3D1%3B%22%20vertex%3D%221%22%20parent%3D%222%22%3E%3CmxGeometry%20y%3D%22140%22%20width%3D%22210%22%20height%3D%2230%22%20as%3D%22geometry%22%2F%3E%3C%2FmxCell%3E%3CmxCell%20id%3D%228%22%20value%3D%22updated_at%22%20style%3D%22text%3BstrokeColor%3Dnone%3BfillColor%3Dnone%3Balign%3Dleft%3BverticalAlign%3Dmiddle%3BspacingLeft%3D4%3BspacingRight%3D4%3Boverflow%3Dhidden%3Bpoints%3D%5B%5B0%2C0.5%5D%2C%5B1%2C0.5%5D%5D%3BportConstraint%3Deastwest%3Brotatable%3D0%3BwhiteSpace%3Dwrap%3Bhtml%3D1%3B%22%20vertex%3D%221%22%20parent%3D%222%22%3E%3CmxGeometry%20y%3D%22170%22%20width%3D%22210%22%20height%3D%2230%22%20as%3D%22geometry%22%2F%3E%3C%2FmxCell%3E%3C%2Froot%3E%3C%2FmxGraphModel%3E&lt;/font&gt;&lt;/span&gt;)" style="text;strokeColor=none;fillColor=none;align=left;verticalAlign=middle;spacingLeft=4;spacingRight=4;overflow=hidden;points=[[0,0.5],[1,0.5]];portConstraint=eastwest;rotatable=0;whiteSpace=wrap;html=1;fontColor=light-dark(#000000,#FFFFFF);labelBackgroundColor=light-dark(#FFFFFF,#000000);" vertex="1" parent="IIZblp1b7rIcMVV6Au-m-76">
          <mxGeometry y="50" width="210" height="30" as="geometry" />
        </mxCell>
        <mxCell id="IIZblp1b7rIcMVV6Au-m-79" value="estado_salvo" style="text;strokeColor=none;fillColor=none;align=left;verticalAlign=middle;spacingLeft=4;spacingRight=4;overflow=hidden;points=[[0,0.5],[1,0.5]];portConstraint=eastwest;rotatable=0;whiteSpace=wrap;html=1;fontColor=light-dark(#000000,#FFFFFF);labelBackgroundColor=light-dark(#FFFFFF,#000000);" vertex="1" parent="IIZblp1b7rIcMVV6Au-m-76">
          <mxGeometry y="80" width="210" height="30" as="geometry" />
        </mxCell>
        <mxCell id="IIZblp1b7rIcMVV6Au-m-80" value="data_criacao" style="text;strokeColor=none;fillColor=none;align=left;verticalAlign=middle;spacingLeft=4;spacingRight=4;overflow=hidden;points=[[0,0.5],[1,0.5]];portConstraint=eastwest;rotatable=0;whiteSpace=wrap;html=1;fontColor=light-dark(#000000,#FFFFFF);labelBackgroundColor=light-dark(#FFFFFF,#000000);" vertex="1" parent="IIZblp1b7rIcMVV6Au-m-76">
          <mxGeometry y="110" width="210" height="30" as="geometry" />
        </mxCell>
        <mxCell id="IIZblp1b7rIcMVV6Au-m-82" value="Representa" style="rhombus;whiteSpace=wrap;html=1;fontColor=light-dark(#000000,#FFFFFF);labelBackgroundColor=light-dark(#FFFFFF,#000000);" vertex="1" parent="1">
          <mxGeometry x="360" y="510" width="110" height="80" as="geometry" />
        </mxCell>
        <mxCell id="IIZblp1b7rIcMVV6Au-m-85" style="edgeStyle=orthogonalEdgeStyle;rounded=0;orthogonalLoop=1;jettySize=auto;html=1;endArrow=none;startFill=0;exitX=1;exitY=0.5;exitDx=0;exitDy=0;fontColor=light-dark(#000000,#FFFFFF);labelBackgroundColor=light-dark(#FFFFFF,#000000);" edge="1" parent="1" source="IIZblp1b7rIcMVV6Au-m-82" target="IIZblp1b7rIcMVV6Au-m-47">
          <mxGeometry relative="1" as="geometry">
            <mxPoint x="340" y="640" as="sourcePoint" />
            <mxPoint x="430" y="640" as="targetPoint" />
          </mxGeometry>
        </mxCell>
        <mxCell id="IIZblp1b7rIcMVV6Au-m-86" value="(1,1)" style="text;html=1;align=center;verticalAlign=middle;resizable=0;points=[];autosize=1;strokeColor=none;fillColor=none;fontColor=light-dark(#000000,#FFFFFF);labelBackgroundColor=light-dark(#FFFFFF,#000000);" vertex="1" parent="1">
          <mxGeometry x="320" y="520" width="50" height="30" as="geometry" />
        </mxCell>
        <mxCell id="IIZblp1b7rIcMVV6Au-m-87" value="(1,1)" style="text;html=1;align=center;verticalAlign=middle;resizable=0;points=[];autosize=1;strokeColor=none;fillColor=none;fontColor=light-dark(#000000,#FFFFFF);labelBackgroundColor=light-dark(#FFFFFF,#000000);" vertex="1" parent="1">
          <mxGeometry x="460" y="520" width="50" height="30" as="geometry" />
        </mxCell>
        <mxCell id="IIZblp1b7rIcMVV6Au-m-90" style="edgeStyle=orthogonalEdgeStyle;rounded=0;orthogonalLoop=1;jettySize=auto;html=1;endArrow=none;startFill=0;fontColor=light-dark(#000000,#FFFFFF);labelBackgroundColor=light-dark(#FFFFFF,#000000);" edge="1" parent="1" source="IIZblp1b7rIcMVV6Au-m-88" target="IIZblp1b7rIcMVV6Au-m-54">
          <mxGeometry relative="1" as="geometry" />
        </mxCell>
        <mxCell id="IIZblp1b7rIcMVV6Au-m-88" value="Possui" style="rhombus;whiteSpace=wrap;html=1;fontColor=light-dark(#000000,#FFFFFF);labelBackgroundColor=light-dark(#FFFFFF,#000000);" vertex="1" parent="1">
          <mxGeometry x="760" y="510" width="110" height="80" as="geometry" />
        </mxCell>
        <mxCell id="IIZblp1b7rIcMVV6Au-m-91" value="(1,1)" style="text;html=1;align=center;verticalAlign=middle;resizable=0;points=[];autosize=1;strokeColor=none;fillColor=none;fontColor=light-dark(#000000,#FFFFFF);labelBackgroundColor=light-dark(#FFFFFF,#000000);" vertex="1" parent="1">
          <mxGeometry x="720" y="520" width="50" height="30" as="geometry" />
        </mxCell>
        <mxCell id="IIZblp1b7rIcMVV6Au-m-92" value="(1,1)" style="text;html=1;align=center;verticalAlign=middle;resizable=0;points=[];autosize=1;strokeColor=none;fillColor=none;fontColor=light-dark(#000000,#FFFFFF);labelBackgroundColor=light-dark(#FFFFFF,#000000);" vertex="1" parent="1">
          <mxGeometry x="860" y="520" width="50" height="30" as="geometry" />
        </mxCell>
        <mxCell id="IIZblp1b7rIcMVV6Au-m-95" style="edgeStyle=orthogonalEdgeStyle;rounded=0;orthogonalLoop=1;jettySize=auto;html=1;endArrow=none;startFill=0;fontColor=light-dark(#000000,#FFFFFF);labelBackgroundColor=light-dark(#FFFFFF,#000000);" edge="1" parent="1" source="IIZblp1b7rIcMVV6Au-m-93" target="IIZblp1b7rIcMVV6Au-m-61">
          <mxGeometry relative="1" as="geometry" />
        </mxCell>
        <mxCell id="IIZblp1b7rIcMVV6Au-m-93" value="Armazena" style="rhombus;whiteSpace=wrap;html=1;fontColor=light-dark(#000000,#FFFFFF);labelBackgroundColor=light-dark(#FFFFFF,#000000);" vertex="1" parent="1">
          <mxGeometry x="960" y="370" width="110" height="80" as="geometry" />
        </mxCell>
        <mxCell id="IIZblp1b7rIcMVV6Au-m-96" value="(N,N)" style="text;html=1;align=center;verticalAlign=middle;resizable=0;points=[];autosize=1;strokeColor=none;fillColor=none;fontColor=light-dark(#000000,#FFFFFF);labelBackgroundColor=light-dark(#FFFFFF,#000000);" vertex="1" parent="1">
          <mxGeometry x="1010" y="340" width="50" height="30" as="geometry" />
        </mxCell>
        <mxCell id="IIZblp1b7rIcMVV6Au-m-97" value="(1,N)" style="text;html=1;align=center;verticalAlign=middle;resizable=0;points=[];autosize=1;strokeColor=none;fillColor=none;fontColor=light-dark(#000000,#FFFFFF);labelBackgroundColor=light-dark(#FFFFFF,#000000);" vertex="1" parent="1">
          <mxGeometry x="1010" y="450" width="50" height="30" as="geometry" />
        </mxCell>
        <mxCell id="IIZblp1b7rIcMVV6Au-m-99" style="edgeStyle=orthogonalEdgeStyle;rounded=0;orthogonalLoop=1;jettySize=auto;html=1;endArrow=none;startFill=0;fontColor=light-dark(#000000,#FFFFFF);labelBackgroundColor=light-dark(#FFFFFF,#000000);" edge="1" parent="1" source="IIZblp1b7rIcMVV6Au-m-98" target="IIZblp1b7rIcMVV6Au-m-61">
          <mxGeometry relative="1" as="geometry" />
        </mxCell>
        <mxCell id="IIZblp1b7rIcMVV6Au-m-100" style="edgeStyle=orthogonalEdgeStyle;rounded=0;orthogonalLoop=1;jettySize=auto;html=1;endArrow=none;startFill=0;fontColor=light-dark(#000000,#FFFFFF);labelBackgroundColor=light-dark(#FFFFFF,#000000);" edge="1" parent="1" source="IIZblp1b7rIcMVV6Au-m-98" target="IIZblp1b7rIcMVV6Au-m-47">
          <mxGeometry relative="1" as="geometry">
            <Array as="points">
              <mxPoint x="710" y="240" />
            </Array>
          </mxGeometry>
        </mxCell>
        <mxCell id="IIZblp1b7rIcMVV6Au-m-98" value="Coleta" style="rhombus;whiteSpace=wrap;html=1;fontColor=light-dark(#000000,#FFFFFF);labelBackgroundColor=light-dark(#FFFFFF,#000000);" vertex="1" parent="1">
          <mxGeometry x="650" y="230" width="110" height="80" as="geometry" />
        </mxCell>
        <mxCell id="IIZblp1b7rIcMVV6Au-m-101" value="(N,N)" style="text;html=1;align=center;verticalAlign=middle;resizable=0;points=[];autosize=1;strokeColor=none;fillColor=none;fontColor=light-dark(#000000,#FFFFFF);labelBackgroundColor=light-dark(#FFFFFF,#000000);" vertex="1" parent="1">
          <mxGeometry x="660" y="420" width="50" height="30" as="geometry" />
        </mxCell>
        <mxCell id="IIZblp1b7rIcMVV6Au-m-102" value="(N,N)" style="text;html=1;align=center;verticalAlign=middle;resizable=0;points=[];autosize=1;strokeColor=none;fillColor=none;fontColor=light-dark(#000000,#FFFFFF);labelBackgroundColor=light-dark(#FFFFFF,#000000);" vertex="1" parent="1">
          <mxGeometry x="860" y="240" width="50" height="30" as="geometry" />
        </mxCell>
        <mxCell id="IIZblp1b7rIcMVV6Au-m-108" value="" style="edgeStyle=orthogonalEdgeStyle;rounded=0;orthogonalLoop=1;jettySize=auto;html=1;endArrow=none;startFill=0;fontColor=light-dark(#000000,#FFFFFF);labelBackgroundColor=light-dark(#FFFFFF,#000000);" edge="1" parent="1" source="IIZblp1b7rIcMVV6Au-m-103" target="IIZblp1b7rIcMVV6Au-m-76">
          <mxGeometry relative="1" as="geometry" />
        </mxCell>
        <mxCell id="IIZblp1b7rIcMVV6Au-m-103" value="Manipula" style="rhombus;whiteSpace=wrap;html=1;fontColor=light-dark(#000000,#FFFFFF);labelBackgroundColor=light-dark(#FFFFFF,#000000);" vertex="1" parent="1">
          <mxGeometry x="470" y="230" width="110" height="80" as="geometry" />
        </mxCell>
        <mxCell id="IIZblp1b7rIcMVV6Au-m-106" style="edgeStyle=orthogonalEdgeStyle;rounded=0;orthogonalLoop=1;jettySize=auto;html=1;endArrow=none;startFill=0;fontColor=light-dark(#000000,#FFFFFF);labelBackgroundColor=light-dark(#FFFFFF,#000000);" edge="1" parent="1" source="IIZblp1b7rIcMVV6Au-m-104" target="IIZblp1b7rIcMVV6Au-m-47">
          <mxGeometry relative="1" as="geometry">
            <Array as="points">
              <mxPoint x="615" y="700" />
              <mxPoint x="615" y="700" />
            </Array>
          </mxGeometry>
        </mxCell>
        <mxCell id="IIZblp1b7rIcMVV6Au-m-107" style="edgeStyle=orthogonalEdgeStyle;rounded=0;orthogonalLoop=1;jettySize=auto;html=1;endArrow=none;startFill=0;fontColor=light-dark(#000000,#FFFFFF);labelBackgroundColor=light-dark(#FFFFFF,#000000);" edge="1" parent="1" source="IIZblp1b7rIcMVV6Au-m-104" target="IIZblp1b7rIcMVV6Au-m-66">
          <mxGeometry relative="1" as="geometry" />
        </mxCell>
        <mxCell id="IIZblp1b7rIcMVV6Au-m-104" value="Acessa" style="rhombus;whiteSpace=wrap;html=1;fontColor=light-dark(#000000,#FFFFFF);labelBackgroundColor=light-dark(#FFFFFF,#000000);" vertex="1" parent="1">
          <mxGeometry x="560" y="680" width="110" height="80" as="geometry" />
        </mxCell>
        <mxCell id="IIZblp1b7rIcMVV6Au-m-111" value="(1,1)" style="text;html=1;align=center;verticalAlign=middle;resizable=0;points=[];autosize=1;strokeColor=none;fillColor=none;fontColor=light-dark(#000000,#FFFFFF);labelBackgroundColor=light-dark(#FFFFFF,#000000);" vertex="1" parent="1">
          <mxGeometry x="520" y="420" width="50" height="30" as="geometry" />
        </mxCell>
        <mxCell id="IIZblp1b7rIcMVV6Au-m-113" value="(1,1)" style="text;html=1;align=center;verticalAlign=middle;resizable=0;points=[];autosize=1;strokeColor=none;fillColor=none;fontColor=light-dark(#000000,#FFFFFF);labelBackgroundColor=light-dark(#FFFFFF,#000000);" vertex="1" parent="1">
          <mxGeometry x="320" y="240" width="50" height="30" as="geometry" />
        </mxCell>
        <mxCell id="IIZblp1b7rIcMVV6Au-m-114" value="(1,N)" style="text;html=1;align=center;verticalAlign=middle;resizable=0;points=[];autosize=1;strokeColor=none;fillColor=none;fontColor=light-dark(#000000,#FFFFFF);labelBackgroundColor=light-dark(#FFFFFF,#000000);" vertex="1" parent="1">
          <mxGeometry x="610" y="650" width="50" height="30" as="geometry" />
        </mxCell>
        <mxCell id="IIZblp1b7rIcMVV6Au-m-115" value="(N,1)" style="text;html=1;align=center;verticalAlign=middle;resizable=0;points=[];autosize=1;strokeColor=none;fillColor=none;fontColor=light-dark(#000000,#FFFFFF);labelBackgroundColor=light-dark(#FFFFFF,#000000);" vertex="1" parent="1">
          <mxGeometry x="610" y="760" width="50" height="30" as="geometry" />
        </mxCell>
      </root>
    </mxGraphModel>
  </diagram>
</mxfile>
